<?xml version="1.0" standalone="no"?>
<!DOCTYPE svg PUBLIC "-//W3C//DTD SVG 20010904//EN"
 "http://www.w3.org/TR/2001/REC-SVG-20010904/DTD/svg10.dtd">
<svg version="1.0" xmlns="http://www.w3.org/2000/svg"
 width="512.000000pt" height="512.000000pt" viewBox="0 0 512.000000 512.000000"
 preserveAspectRatio="xMidYMid meet">
<metadata>
Created by potrace 1.11, written by Peter Selinger 2001-2013
</metadata>
<g transform="translate(0.000000,512.000000) scale(0.100000,-0.100000)"
fill="#000000" stroke="none">
<path d="M2369 5116 c-2 -2 -38 -6 -79 -10 -298 -26 -625 -124 -915 -275 -246
-127 -425 -260 -630 -465 -214 -215 -360 -420 -491 -689 -133 -276 -204 -525
-243 -857 -22 -187 1 -752 30 -734 5 3 6 -2 3 -10 -3 -8 -2 -21 2 -28 4 -7 9
-26 10 -43 3 -63 4 -66 16 -59 6 4 8 3 4 -4 -9 -15 16 -102 28 -95 5 4 7 -1 3
-11 -4 -11 7 -59 28 -117 50 -139 60 -160 70 -152 4 5 5 3 1 -4 -9 -16 27 -96
39 -86 4 5 5 3 2 -4 -9 -14 47 -125 58 -115 5 4 5 1 1 -6 -5 -7 -2 -21 6 -30
8 -9 23 -34 33 -54 11 -21 23 -38 27 -38 5 0 8 -6 8 -14 0 -8 6 -21 13 -28 6
-7 30 -40 51 -73 38 -59 133 -180 188 -240 75 -83 102 -110 110 -108 4 2 8 -2
8 -8 0 -15 67 -77 189 -176 386 -314 849 -505 1361 -562 89 -10 483 -7 560 5
61 8 285 50 320 59 540 138 1038 459 1382 890 255 321 453 751 513 1117 3 18
8 45 11 60 19 92 31 287 29 453 -2 164 -8 234 -31 365 -2 14 -7 43 -10 65 -4
22 -20 92 -36 155 -17 63 -31 122 -33 130 -9 41 -108 287 -152 375 -185 372
-452 692 -768 921 -44 32 -82 61 -85 64 -8 8 -111 70 -117 70 -4 0 -14 7 -23
15 -34 31 -307 158 -439 204 -137 49 -354 105 -446 116 -54 6 -93 12 -140 20
-35 7 -460 17 -466 11z"/>
</g>
</svg>
